<svg xmlns="http://www.w3.org/2000/svg" xmlns:xlink="http://www.w3.org/1999/xlink" width="400" zoomAndPan="magnify" viewBox="0 0 300 149.999998" height="200" preserveAspectRatio="xMidYMid meet" version="1.0"><defs><g/></defs><g fill="#ffffff" fill-opacity="1"><g transform="translate(16.652345, 94.499996)"><g><path d="M 45.703125 -68.59375 C 44.835938 -69 43.867188 -69.332031 42.796875 -69.59375 C 41.734375 -69.863281 40.601562 -70 39.40625 -70 C 38.132812 -70 36.929688 -69.75 35.796875 -69.25 C 34.660156 -68.75 33.660156 -68.082031 32.796875 -67.25 C 31.929688 -66.414062 31.25 -65.429688 30.75 -64.296875 C 30.25 -63.160156 30 -61.960938 30 -60.703125 C 30 -58.703125 30.429688 -56.867188 31.296875 -55.203125 C 32.160156 -53.535156 33.289062 -52.066406 34.6875 -50.796875 C 36.09375 -49.535156 37.710938 -48.519531 39.546875 -47.75 C 41.378906 -46.976562 43.265625 -46.53125 45.203125 -46.40625 C 47.671875 -50.070312 50.300781 -53.382812 53.09375 -56.34375 C 55.894531 -59.3125 58.929688 -61.960938 62.203125 -64.296875 C 68.671875 -68.898438 74.96875 -71.203125 81.09375 -71.203125 C 83.632812 -71.203125 85.65625 -70.632812 87.15625 -69.5 C 88.65625 -68.363281 89.40625 -66.597656 89.40625 -64.203125 C 89.40625 -62.203125 88.585938 -60 86.953125 -57.59375 C 85.316406 -55.195312 82.800781 -52.929688 79.40625 -50.796875 C 76.195312 -48.796875 72.5625 -47.210938 68.5 -46.046875 C 64.4375 -44.878906 60.269531 -44.296875 56 -44.296875 C 55 -44.296875 54.066406 -44.296875 53.203125 -44.296875 C 52.335938 -44.296875 51.335938 -44.363281 50.203125 -44.5 L 41.59375 -30.796875 C 39.863281 -27.992188 37.929688 -25.191406 35.796875 -22.390625 C 33.660156 -19.597656 31.328125 -16.9375 28.796875 -14.40625 C 23.734375 -9.332031 18.300781 -5.664062 12.5 -3.40625 L 12.703125 -3.203125 C 13.503906 -3.335938 14.171875 -3.421875 14.703125 -3.453125 C 15.234375 -3.484375 15.898438 -3.5 16.703125 -3.5 C 20.503906 -3.5 23.65625 -2.597656 26.15625 -0.796875 C 28.65625 1.003906 30.238281 3.90625 30.90625 7.90625 C 35.300781 2.90625 42.066406 -3.660156 51.203125 -11.796875 C 55.796875 -15.867188 59.441406 -19.117188 62.140625 -21.546875 C 64.847656 -23.984375 66.664062 -25.632812 67.59375 -26.5 L 68.09375 -25.90625 L 49.796875 -9.203125 C 43.796875 -3.796875 39.328125 0.4375 36.390625 3.5 C 33.460938 6.5625 31.566406 8.628906 30.703125 9.703125 C 29.703125 12.171875 28.617188 13.96875 27.453125 15.09375 C 26.285156 16.226562 25.234375 16.796875 24.296875 16.796875 C 23.429688 16.796875 23 16.429688 23 15.703125 C 23 15.234375 23.113281 14.832031 23.34375 14.5 C 23.582031 14.164062 23.847656 13.832031 24.140625 13.5 C 24.441406 13.164062 24.726562 12.796875 25 12.390625 C 25.269531 11.992188 25.40625 11.429688 25.40625 10.703125 C 25.40625 6.765625 24.085938 3.59375 21.453125 1.1875 C 18.816406 -1.207031 15.363281 -2.40625 11.09375 -2.40625 C 9.96875 -2.40625 7.46875 -1.738281 3.59375 -0.40625 C -0.195312 0.925781 -3.296875 1.59375 -5.703125 1.59375 C -6.503906 1.59375 -7.1875 1.457031 -7.75 1.1875 C -8.3125 0.925781 -8.59375 0.53125 -8.59375 0 C -8.59375 -1.195312 -6.257812 -2.097656 -1.59375 -2.703125 C 0.863281 -3.035156 3.257812 -3.234375 5.59375 -3.296875 C 7.925781 -3.367188 9.757812 -3.46875 11.09375 -3.59375 C 11.226562 -3.664062 12.046875 -4 13.546875 -4.59375 C 15.046875 -5.195312 16.765625 -6.332031 18.703125 -8 C 20.296875 -9.332031 21.910156 -10.960938 23.546875 -12.890625 C 25.179688 -14.828125 26.765625 -16.929688 28.296875 -19.203125 C 29.828125 -21.535156 31.226562 -23.679688 32.5 -25.640625 C 33.769531 -27.609375 34.867188 -29.425781 35.796875 -31.09375 C 36.796875 -32.832031 37.976562 -34.867188 39.34375 -37.203125 C 40.71875 -39.535156 42.367188 -42.203125 44.296875 -45.203125 C 39.492188 -46.003906 35.707031 -47.835938 32.9375 -50.703125 C 30.175781 -53.566406 28.796875 -56.898438 28.796875 -60.703125 C 28.796875 -62.097656 29.078125 -63.425781 29.640625 -64.6875 C 30.210938 -65.957031 30.960938 -67.078125 31.890625 -68.046875 C 32.828125 -69.015625 33.945312 -69.78125 35.25 -70.34375 C 36.550781 -70.914062 37.96875 -71.203125 39.5 -71.203125 C 40.769531 -71.203125 41.96875 -71.050781 43.09375 -70.75 C 44.226562 -70.445312 45.226562 -70.097656 46.09375 -69.703125 Z M 50.703125 -45.703125 C 51.898438 -45.566406 52.929688 -45.5 53.796875 -45.5 C 54.660156 -45.5 55.363281 -45.5 55.90625 -45.5 C 59.300781 -45.5 62.765625 -45.945312 66.296875 -46.84375 C 69.828125 -47.75 73.128906 -49.035156 76.203125 -50.703125 C 82.734375 -54.296875 86 -58.757812 86 -64.09375 C 86 -68.03125 83.96875 -70 79.90625 -70 C 77.570312 -70 75.171875 -69.445312 72.703125 -68.34375 C 70.234375 -67.25 67.75 -65.664062 65.25 -63.59375 C 62.75 -61.53125 60.265625 -58.984375 57.796875 -55.953125 C 55.328125 -52.921875 52.960938 -49.503906 50.703125 -45.703125 Z M 50.703125 -45.703125 "/></g></g></g><g fill="#ffffff" fill-opacity="1"><g transform="translate(72.250201, 94.499996)"><g><path d="M 34.796875 -31.203125 C 34.796875 -29.867188 34.113281 -28.515625 32.75 -27.140625 C 31.382812 -25.773438 29.566406 -24.476562 27.296875 -23.25 C 25.035156 -22.019531 22.421875 -20.851562 19.453125 -19.75 C 16.484375 -18.644531 13.398438 -17.726562 10.203125 -17 C 9.460938 -15.664062 8.859375 -14.164062 8.390625 -12.5 C 7.929688 -10.832031 7.703125 -9.164062 7.703125 -7.5 C 7.703125 -5.5625 8.117188 -3.976562 8.953125 -2.75 C 9.785156 -1.519531 11 -0.90625 12.59375 -0.90625 C 14.800781 -0.90625 17.367188 -1.617188 20.296875 -3.046875 C 23.234375 -4.484375 26.234375 -6.382812 29.296875 -8.75 C 32.367188 -11.113281 35.320312 -13.828125 38.15625 -16.890625 C 40.988281 -19.960938 43.40625 -23.164062 45.40625 -26.5 L 46.203125 -26 C 44.265625 -22.726562 41.878906 -19.507812 39.046875 -16.34375 C 36.210938 -13.175781 33.175781 -10.328125 29.9375 -7.796875 C 26.707031 -5.265625 23.410156 -3.210938 20.046875 -1.640625 C 16.679688 -0.078125 13.5 0.703125 10.5 0.703125 C 7.695312 0.703125 5.53125 -0.0078125 4 -1.4375 C 2.46875 -2.875 1.703125 -4.925781 1.703125 -7.59375 C 1.703125 -9.925781 2.453125 -12.726562 3.953125 -16 C 5.453125 -19.269531 7.800781 -22.503906 11 -25.703125 C 14.195312 -28.898438 17.445312 -31.296875 20.75 -32.890625 C 24.050781 -34.492188 26.96875 -35.296875 29.5 -35.296875 C 31.164062 -35.296875 32.460938 -34.945312 33.390625 -34.25 C 34.328125 -33.550781 34.796875 -32.535156 34.796875 -31.203125 Z M 10.703125 -18.09375 C 12.898438 -18.5625 15.148438 -19.226562 17.453125 -20.09375 C 19.753906 -20.96875 21.820312 -21.96875 23.65625 -23.09375 C 25.488281 -24.226562 27.003906 -25.492188 28.203125 -26.890625 C 29.398438 -28.296875 30 -29.765625 30 -31.296875 C 30 -32.234375 29.75 -32.929688 29.25 -33.390625 C 28.75 -33.859375 28.097656 -34.09375 27.296875 -34.09375 C 26.160156 -34.09375 24.828125 -33.609375 23.296875 -32.640625 C 21.765625 -31.679688 20.210938 -30.453125 18.640625 -28.953125 C 17.078125 -27.453125 15.578125 -25.734375 14.140625 -23.796875 C 12.710938 -21.867188 11.566406 -19.96875 10.703125 -18.09375 Z M 10.703125 -18.09375 "/></g></g></g><g fill="#ffffff" fill-opacity="1"><g transform="translate(105.548912, 94.499996)"><g><path d="M 39.703125 -30.296875 C 39.703125 -29.097656 39.082031 -27.414062 37.84375 -25.25 C 36.613281 -23.082031 34.46875 -19.929688 31.40625 -15.796875 L 31.59375 -15.59375 C 33.664062 -18.53125 35.785156 -21.164062 37.953125 -23.5 C 40.117188 -25.832031 42.332031 -27.898438 44.59375 -29.703125 C 46.863281 -31.566406 49.015625 -32.945312 51.046875 -33.84375 C 53.078125 -34.75 54.960938 -35.203125 56.703125 -35.203125 C 58.628906 -35.203125 60.078125 -34.734375 61.046875 -33.796875 C 62.015625 -32.867188 62.5 -31.570312 62.5 -29.90625 C 62.5 -28.4375 61.832031 -26.566406 60.5 -24.296875 C 59.164062 -22.035156 57.234375 -19.238281 54.703125 -15.90625 C 52.171875 -12.570312 50.238281 -9.867188 48.90625 -7.796875 C 47.570312 -5.734375 46.90625 -4.132812 46.90625 -3 C 46.90625 -2.195312 47.15625 -1.5625 47.65625 -1.09375 C 48.15625 -0.632812 48.769531 -0.40625 49.5 -0.40625 C 52.4375 -0.40625 56.367188 -2.535156 61.296875 -6.796875 C 66.234375 -11.066406 71.898438 -17.535156 78.296875 -26.203125 L 79.09375 -25.796875 C 65.96875 -8.066406 55.9375 0.796875 49 0.796875 C 46.9375 0.796875 45.40625 0.210938 44.40625 -0.953125 C 43.40625 -2.117188 42.90625 -3.566406 42.90625 -5.296875 C 42.90625 -8.296875 45.503906 -13 50.703125 -19.40625 C 53.234375 -22.601562 55.164062 -25.148438 56.5 -27.046875 C 57.832031 -28.953125 58.5 -30.4375 58.5 -31.5 C 58.5 -32.4375 58.234375 -33.085938 57.703125 -33.453125 C 57.171875 -33.816406 56.570312 -34 55.90625 -34 C 53.96875 -34 51.613281 -33.113281 48.84375 -31.34375 C 46.082031 -29.582031 43 -26.898438 39.59375 -23.296875 C 36.132812 -19.703125 33.050781 -15.9375 30.34375 -12 C 27.644531 -8.0625 25.332031 -4.0625 23.40625 0 L 17 0 C 18.9375 -3.394531 20.921875 -6.660156 22.953125 -9.796875 C 24.984375 -12.929688 27.066406 -16.097656 29.203125 -19.296875 C 31.335938 -22.492188 32.953125 -25.09375 34.046875 -27.09375 C 35.148438 -29.09375 35.703125 -30.492188 35.703125 -31.296875 C 35.703125 -33.097656 34.769531 -34 32.90625 -34 C 30.90625 -34 28.421875 -33 25.453125 -31 C 22.484375 -29 19.195312 -25.898438 15.59375 -21.703125 C 12 -17.503906 9 -13.585938 6.59375 -9.953125 C 4.195312 -6.316406 2.234375 -3 0.703125 0 L -5.796875 0 C -4.597656 -1.9375 -3.046875 -4.382812 -1.140625 -7.34375 C 0.753906 -10.3125 2.96875 -13.796875 5.5 -17.796875 C 8.101562 -21.796875 10.269531 -25.175781 12 -27.9375 C 13.726562 -30.707031 15.0625 -32.863281 16 -34.40625 L 22.09375 -34.40625 L 8.90625 -15.796875 L 9.09375 -15.59375 C 11.894531 -19.132812 14.257812 -21.96875 16.1875 -24.09375 C 18.125 -26.226562 20.0625 -28.128906 22 -29.796875 C 26.269531 -33.398438 30.335938 -35.203125 34.203125 -35.203125 C 35.796875 -35.203125 37.109375 -34.785156 38.140625 -33.953125 C 39.179688 -33.117188 39.703125 -31.898438 39.703125 -30.296875 Z M 39.703125 -30.296875 "/></g></g></g><g fill="#ffffff" fill-opacity="1"><g transform="translate(172.246346, 94.499996)"><g><path d="M 39.703125 -30.296875 C 39.703125 -29.097656 39.082031 -27.414062 37.84375 -25.25 C 36.613281 -23.082031 34.46875 -19.929688 31.40625 -15.796875 L 31.59375 -15.59375 C 33.664062 -18.53125 35.785156 -21.164062 37.953125 -23.5 C 40.117188 -25.832031 42.332031 -27.898438 44.59375 -29.703125 C 46.863281 -31.566406 49.015625 -32.945312 51.046875 -33.84375 C 53.078125 -34.75 54.960938 -35.203125 56.703125 -35.203125 C 58.628906 -35.203125 60.078125 -34.734375 61.046875 -33.796875 C 62.015625 -32.867188 62.5 -31.570312 62.5 -29.90625 C 62.5 -28.4375 61.832031 -26.566406 60.5 -24.296875 C 59.164062 -22.035156 57.234375 -19.238281 54.703125 -15.90625 C 52.171875 -12.570312 50.238281 -9.867188 48.90625 -7.796875 C 47.570312 -5.734375 46.90625 -4.132812 46.90625 -3 C 46.90625 -2.195312 47.15625 -1.5625 47.65625 -1.09375 C 48.15625 -0.632812 48.769531 -0.40625 49.5 -0.40625 C 52.4375 -0.40625 56.367188 -2.535156 61.296875 -6.796875 C 66.234375 -11.066406 71.898438 -17.535156 78.296875 -26.203125 L 79.09375 -25.796875 C 65.96875 -8.066406 55.9375 0.796875 49 0.796875 C 46.9375 0.796875 45.40625 0.210938 44.40625 -0.953125 C 43.40625 -2.117188 42.90625 -3.566406 42.90625 -5.296875 C 42.90625 -8.296875 45.503906 -13 50.703125 -19.40625 C 53.234375 -22.601562 55.164062 -25.148438 56.5 -27.046875 C 57.832031 -28.953125 58.5 -30.4375 58.5 -31.5 C 58.5 -32.4375 58.234375 -33.085938 57.703125 -33.453125 C 57.171875 -33.816406 56.570312 -34 55.90625 -34 C 53.96875 -34 51.613281 -33.113281 48.84375 -31.34375 C 46.082031 -29.582031 43 -26.898438 39.59375 -23.296875 C 36.132812 -19.703125 33.050781 -15.9375 30.34375 -12 C 27.644531 -8.0625 25.332031 -4.0625 23.40625 0 L 17 0 C 18.9375 -3.394531 20.921875 -6.660156 22.953125 -9.796875 C 24.984375 -12.929688 27.066406 -16.097656 29.203125 -19.296875 C 31.335938 -22.492188 32.953125 -25.09375 34.046875 -27.09375 C 35.148438 -29.09375 35.703125 -30.492188 35.703125 -31.296875 C 35.703125 -33.097656 34.769531 -34 32.90625 -34 C 30.90625 -34 28.421875 -33 25.453125 -31 C 22.484375 -29 19.195312 -25.898438 15.59375 -21.703125 C 12 -17.503906 9 -13.585938 6.59375 -9.953125 C 4.195312 -6.316406 2.234375 -3 0.703125 0 L -5.796875 0 C -4.597656 -1.9375 -3.046875 -4.382812 -1.140625 -7.34375 C 0.753906 -10.3125 2.96875 -13.796875 5.5 -17.796875 C 8.101562 -21.796875 10.269531 -25.175781 12 -27.9375 C 13.726562 -30.707031 15.0625 -32.863281 16 -34.40625 L 22.09375 -34.40625 L 8.90625 -15.796875 L 9.09375 -15.59375 C 11.894531 -19.132812 14.257812 -21.96875 16.1875 -24.09375 C 18.125 -26.226562 20.0625 -28.128906 22 -29.796875 C 26.269531 -33.398438 30.335938 -35.203125 34.203125 -35.203125 C 35.796875 -35.203125 37.109375 -34.785156 38.140625 -33.953125 C 39.179688 -33.117188 39.703125 -31.898438 39.703125 -30.296875 Z M 39.703125 -30.296875 "/></g></g></g><g fill="#ffffff" fill-opacity="1"><g transform="translate(238.943791, 94.499996)"><g><path d="M 35.40625 -28.5 L 38.703125 -34.40625 L 45.203125 -34.40625 C 43.265625 -31.738281 41.195312 -28.835938 39 -25.703125 C 36.800781 -22.566406 34.75 -19.53125 32.84375 -16.59375 C 30.945312 -13.664062 29.363281 -10.984375 28.09375 -8.546875 C 26.832031 -6.117188 26.203125 -4.269531 26.203125 -3 C 26.203125 -1.269531 27.101562 -0.40625 28.90625 -0.40625 C 30.238281 -0.40625 31.953125 -1.050781 34.046875 -2.34375 C 36.148438 -3.644531 38.453125 -5.460938 40.953125 -7.796875 C 43.453125 -10.128906 46.066406 -12.894531 48.796875 -16.09375 C 51.535156 -19.300781 54.171875 -22.835938 56.703125 -26.703125 L 57.296875 -26.5 C 54.492188 -22.300781 51.726562 -18.5 49 -15.09375 C 46.269531 -11.695312 43.617188 -8.832031 41.046875 -6.5 C 38.484375 -4.164062 36.082031 -2.363281 33.84375 -1.09375 C 31.613281 0.164062 29.597656 0.796875 27.796875 0.796875 C 25.867188 0.796875 24.453125 0.316406 23.546875 -0.640625 C 22.648438 -1.609375 22.203125 -2.757812 22.203125 -4.09375 C 22.203125 -5.03125 22.347656 -5.960938 22.640625 -6.890625 C 22.941406 -7.828125 23.257812 -8.726562 23.59375 -9.59375 L 23.40625 -9.703125 C 20.195312 -6.296875 17.160156 -3.691406 14.296875 -1.890625 C 11.429688 -0.0976562 8.898438 0.796875 6.703125 0.796875 C 4.234375 0.796875 2.5 0.03125 1.5 -1.5 C 0.5 -3.03125 0 -4.765625 0 -6.703125 C 0 -9.171875 0.765625 -12.003906 2.296875 -15.203125 C 3.828125 -18.398438 6.160156 -21.695312 9.296875 -25.09375 C 12.429688 -28.5 15.515625 -31.035156 18.546875 -32.703125 C 21.578125 -34.367188 24.328125 -35.203125 26.796875 -35.203125 C 28.929688 -35.203125 30.734375 -34.664062 32.203125 -33.59375 C 33.671875 -32.53125 34.671875 -30.832031 35.203125 -28.5 Z M 9.59375 -1.59375 C 10.925781 -1.59375 12.84375 -2.359375 15.34375 -3.890625 C 17.84375 -5.429688 20.53125 -7.832031 23.40625 -11.09375 C 26.269531 -14.363281 28.414062 -17.597656 29.84375 -20.796875 C 31.28125 -23.992188 32 -26.828125 32 -29.296875 C 32 -30.765625 31.566406 -31.914062 30.703125 -32.75 C 29.835938 -33.582031 28.738281 -34 27.40625 -34 C 26.195312 -34 24.8125 -33.597656 23.25 -32.796875 C 21.6875 -31.992188 20.117188 -30.925781 18.546875 -29.59375 C 16.984375 -28.257812 15.453125 -26.675781 13.953125 -24.84375 C 12.453125 -23.007812 11.097656 -21.078125 9.890625 -19.046875 C 8.691406 -17.015625 7.742188 -14.914062 7.046875 -12.75 C 6.347656 -10.582031 6 -8.46875 6 -6.40625 C 6 -3.195312 7.195312 -1.59375 9.59375 -1.59375 Z M 9.59375 -1.59375 "/></g></g></g></svg>